<?xml version="1.0" encoding="utf-8"?>
<!-- Generator: Adobe Illustrator 18.0.0, SVG Export Plug-In . SVG Version: 6.00 Build 0)  -->
<!DOCTYPE svg PUBLIC "-//W3C//DTD SVG 1.1//EN" "http://www.w3.org/Graphics/SVG/1.1/DTD/svg11.dtd">
<svg version="1.1" xmlns="http://www.w3.org/2000/svg" xmlns:xlink="http://www.w3.org/1999/xlink" x="0px" y="0px"
	 viewBox="0 0 193.7 72.9" enable-background="new 0 0 193.7 72.9" xml:space="preserve">
<g id="Layer_4">
	<rect x="0" y="0" fill="#FFFFFF" width="192.9" height="72.9"/>
</g>
<g id="Layer_5">
</g>
<g id="Layer_1">
	<circle fill="none" stroke="#009345" stroke-width="2" stroke-miterlimit="10" cx="36.3" cy="36.7" r="20.8"/>
	<line fill="#FFFFFF" stroke="#009345" stroke-width="2" stroke-miterlimit="10" x1="15.5" y1="36.7" x2="56.9" y2="36.7"/>
	<line fill="#FFFFFF" stroke="#009345" stroke-width="2" stroke-miterlimit="10" x1="18.5" y1="25.9" x2="54.1" y2="25.9"/>
	<line fill="#FFFFFF" stroke="#009345" stroke-width="2" stroke-miterlimit="10" x1="18.5" y1="47.1" x2="54.1" y2="47.1"/>
	<path fill="none" stroke="#009345" stroke-width="2" stroke-miterlimit="10" d="M35.9,15.8c0,0-22.4,19.3,0,41.7"/>
	<path fill="none" stroke="#009345" stroke-width="2" stroke-miterlimit="10" d="M36.7,15.8c0,0,22.4,19.3,0,41.7"/>
	<line fill="#FFFFFF" stroke="#009345" stroke-width="2" stroke-miterlimit="10" x1="36.3" y1="57.5" x2="36.3" y2="15.8"/>
</g>
<g id="Layer_2">
	<path fill="#006838" d="M69.1,22L69.1,22l-0.1-0.1L36.3,36.7l25.4,1.9c-1,13.2-12,23.6-25.4,23.6c-14.1,0-25.5-11.4-25.5-25.5
		c0-14.1,11.4-25.5,25.5-25.5c4.9,0,9.5,1.4,13.3,3.8l5.5-8.9c-5.5-3.4-11.9-5.3-18.8-5.3C16.5,0.8,0.4,16.8,0.4,36.7
		c0,19.8,16.1,35.9,35.9,35.9c19.8,0,35.9-16.1,35.9-35.9C72.3,31.5,71.1,26.5,69.1,22z"/>
</g>
<g id="Layer_3">
	<g>
		<path fill="#004221" d="M85.3,42.6c-1.7-1.7-2.5-3.8-2.5-6.3c0-2.5,0.9-4.5,2.5-6.2s3.8-2.5,6.2-2.5c2.5,0,4.7,0.8,6.5,2.3
			l-2.3,2.6c-1.2-0.9-2.6-1.4-4.1-1.4c-1.6,0-2.8,0.5-3.8,1.5s-1.4,2.2-1.4,3.8c0,1.6,0.5,2.9,1.5,3.9s2.2,1.4,3.8,1.4
			c1.3,0,2.2-0.2,2.9-0.8v-3l-2.3,0v-3.3H98v8.2c-1.8,1.6-3.9,2.3-6.5,2.3C89,45.1,87,44.3,85.3,42.6z"/>
		<path fill="#004221" d="M100.6,45.1l7-17.6h3.5l7,17.6l-3.7,0l-1.1-2.7h-8l-1.1,2.7H100.6z M109.5,32.2l-2.7,6.7h5.3L109.5,32.2z"
			/>
		<path fill="#004221" d="M124.3,27.5v14.3h9.4v3.3h-12.9V27.5H124.3z"/>
		<path fill="#004221" d="M136.6,27.5h3.5v17.6h-3.5V27.5z"/>
		<path fill="#004221" d="M147.2,27.5v14.3h9.4v3.3h-12.9V27.5H147.2z"/>
		<path fill="#004221" d="M159.4,45.1V27.5l12.9,0v3.3h-9.4v3.8h7v3.3h-7v4h9.4v3.3H159.4z"/>
		<path fill="#004221" d="M177.5,42.6c-1.7-1.7-2.5-3.8-2.5-6.3c0-2.5,0.8-4.6,2.5-6.3s3.8-2.5,6.3-2.5c2.5,0,4.6,0.8,6.3,2.5
			s2.5,3.8,2.5,6.3s-0.8,4.6-2.5,6.3s-3.8,2.5-6.3,2.5C181.3,45.1,179.2,44.3,177.5,42.6z M183.8,41.8c1.6,0,2.8-0.5,3.8-1.6
			s1.5-2.4,1.5-3.9s-0.5-2.9-1.5-3.9s-2.2-1.6-3.8-1.6c-1.6,0-2.8,0.5-3.8,1.6s-1.5,2.4-1.5,3.9s0.5,2.9,1.5,3.9
			S182.2,41.8,183.8,41.8z"/>
	</g>
	<g>
	</g>
	<g>
	</g>
	<g>
	</g>
	<g>
	</g>
	<g>
	</g>
	<g>
	</g>
</g>
</svg>
